<?xml version="1.0" encoding="UTF-8" standalone="no"?>
<!DOCTYPE svg PUBLIC "-//W3C//DTD SVG 1.1//EN" "http://www.w3.org/Graphics/SVG/1.1/DTD/svg11.dtd">
<svg version="1.1" xmlns="http://www.w3.org/2000/svg" xmlns:xlink="http://www.w3.org/1999/xlink" preserveAspectRatio="xMidYMid meet" viewBox="0 0 640 640" width="640" height="640"><defs><path d="M155.9 319.89C155.9 410.64 229.44 484.11 320.11 484.11C410.86 484.11 484.33 410.56 484.33 319.89C484.33 229.15 410.78 155.68 320.11 155.68C229.36 155.68 155.9 229.23 155.9 319.89ZM213.52 319.89C213.52 261.01 261.23 213.31 320.11 213.31C378.99 213.31 426.7 261.01 426.7 319.89C426.72 378.77 379.02 426.48 320.11 426.48C261.2 426.48 213.52 378.77 213.52 319.89Z" id="b1qMuGf4cJ"></path><path d="M188.3 2.02C136.51 4.45 90.83 16.96 54 53.78C-7.55 115.33 0.32 198.26 0.32 319.89C0.32 444.37 -6.61 525.39 54 586C115.79 647.76 199.92 639.68 320.11 639.68C443.42 639.68 485.98 639.76 529.58 622.88C588.86 599.87 633.61 546.88 637.98 451.71C640.75 392.8 640.59 246.99 637.98 188.05C632.7 75.7 572.41 7.57 451.95 2.02C393.07 -0.72 247.23 -0.59 188.3 2.02ZM319.34 582.03C186 582.03 132.54 584 93.52 544.88C48.59 500.16 56.72 428.35 56.72 319.47C56.72 172.13 41.6 66.02 189.47 58.45C223.44 57.25 233.44 56.85 318.96 56.85C319.08 56.93 320.04 57.57 320.16 57.65C462.27 57.65 573.77 42.77 580.46 190.61C581.98 224.35 582.33 234.48 582.33 319.87C582.3 451.65 584.81 505.44 545.15 545.28C504.81 585.63 448.83 582.03 319.34 582.03Z" id="f9FiklsuH"></path><path d="M490.83 110.82C469.64 110.82 452.46 128 452.46 149.2C452.46 170.39 469.64 187.57 490.83 187.57C512.02 187.57 529.21 170.39 529.21 149.2C529.21 128 512.02 110.82 490.83 110.82Z" id="bosBy3e8S"></path></defs><g><g><g><use xlink:href="#b1qMuGf4cJ" opacity="1" fill="#ffffff" fill-opacity="1"></use><g><use xlink:href="#b1qMuGf4cJ" opacity="1" fill-opacity="0" stroke="#000000" stroke-width="1" stroke-opacity="0"></use></g></g><g><use xlink:href="#f9FiklsuH" opacity="1" fill="#ffffff" fill-opacity="1"></use><g><use xlink:href="#f9FiklsuH" opacity="1" fill-opacity="0" stroke="#000000" stroke-width="1" stroke-opacity="0"></use></g></g><g><use xlink:href="#bosBy3e8S" opacity="1" fill="#ffffff" fill-opacity="1"></use><g><use xlink:href="#bosBy3e8S" opacity="1" fill-opacity="0" stroke="#000000" stroke-width="1" stroke-opacity="0"></use></g></g></g></g></svg>