<?xml version="1.0" encoding="UTF-8" standalone="no"?>
<!DOCTYPE svg PUBLIC "-//W3C//DTD SVG 1.1//EN" "http://www.w3.org/Graphics/SVG/1.1/DTD/svg11.dtd">
<svg version="1.1" xmlns="http://www.w3.org/2000/svg" xmlns:xlink="http://www.w3.org/1999/xlink" preserveAspectRatio="xMidYMid meet" viewBox="0 0 640 640" width="640" height="640"><defs><path d="M531.05 321.24C531.18 321.1 616.63 203.03 625.43 162.99C625.44 162.99 625.48 162.97 625.48 162.96C629.86 148.37 625.48 137.65 604.33 137.65C597.33 137.65 541.33 137.65 534.33 137.65C516.51 137.65 508.29 146.85 503.89 157.15C503.89 157.15 468.25 242.46 417.83 297.76C401.56 313.74 394.04 318.86 385.15 318.86C380.78 318.86 373.98 313.74 373.98 299.15C373.98 285.53 373.98 176.58 373.98 162.96C373.98 145.46 368.99 137.65 354.24 137.65C343.23 137.65 255.17 137.65 244.17 137.65C232.99 137.65 226.35 145.81 226.35 153.41C226.35 170.01 251.56 173.82 254.17 220.5C254.17 230.63 254.17 311.67 254.17 321.8C254.17 343.99 250.14 348.07 241.21 348.07C217.41 348.07 159.66 262.41 125.43 164.38C118.52 145.36 111.77 137.67 93.82 137.67C86.82 137.67 30.79 137.67 23.79 137.67C3.81 137.67 -0.22 146.88 -0.22 157.17C-0.22 175.37 23.58 265.83 110.44 385.34C168.33 466.92 249.85 511.12 324.01 511.12C368.59 511.12 374.03 501.3 374.03 484.42C374.03 406.47 370 399.1 392.33 399.1C402.68 399.1 420.5 404.23 462.12 443.57C509.68 490.23 517.5 511.12 544.12 511.12C551.12 511.12 607.12 511.12 614.12 511.12C634.07 511.12 644.18 501.3 638.37 481.94C625.06 441.2 535.1 357.41 531.05 351.81C520.7 338.74 523.66 332.92 531.05 321.24Z" id="e14gEwTS0y"></path></defs><g><g><g><use xlink:href="#e14gEwTS0y" opacity="1" fill="#ffffff" fill-opacity="1"></use><g><use xlink:href="#e14gEwTS0y" opacity="1" fill-opacity="0" stroke="#000000" stroke-width="1" stroke-opacity="0"></use></g></g></g></g></svg>