<svg width="128" height="160" xmlns="http://www.w3.org/2000/svg">

 <g>
  <title>Layer 1</title>
  <path stroke="null" id="svg_1" d="m92.2938,0.61111l-77.19526,0c-7.00501,0 -12.60903,5.11111 -12.60903,11.5l0,135.44445c0,6.38889 5.60401,11.5 12.60903,11.5l98.07021,0c7.00501,0 12.60903,-5.11111 12.60903,-11.5l0,-116.40556l-33.48397,-30.53889zm-0.1401,7.15556l25.77845,23.51111l-18.77344,0c-3.92281,0 -7.00501,-2.81111 -7.00501,-6.38889l0,-17.12222zm28.02006,139.78889c0,3.57778 -3.08221,6.38889 -7.00501,6.38889l-98.07021,0c-3.92281,0 -7.00501,-2.81111 -7.00501,-6.38889l0,-29.38889l112.08024,0l0,29.38889zm0,-34.5l-112.08024,0l0,-100.94445c0,-3.57778 3.08221,-6.38889 7.00501,-6.38889l71.45115,0l0,19.16667c0,6.38889 5.60401,11.5 12.60903,11.5l21.01504,0l0,76.66667zm-60.24313,25.55556l4.20301,0c1.5411,0 2.80201,1.15 2.80201,2.55556s-1.2609,2.55556 -2.80201,2.55556l-9.66692,0c-1.401,0 -2.66191,0.89444 -2.94211,2.17222c-0.2802,1.66111 1.1208,2.93889 2.80201,2.93889l9.80702,0c4.62331,0 8.40602,-3.45 8.40602,-7.66667s-3.78271,-7.66667 -8.40602,-7.66667l-4.20301,0c-1.5411,0 -2.80201,-1.15 -2.80201,-2.55556s1.2609,-2.55556 2.80201,-2.55556l9.66692,0c1.401,0 2.66191,-0.89444 2.94211,-2.17222c0.2802,-1.66111 -1.1208,-2.93889 -2.80201,-2.93889l-9.80702,0c-4.62331,0 -8.40602,3.45 -8.40602,7.66667s3.78271,7.66667 8.40602,7.66667zm29.42106,10.22222c1.5411,0 2.80201,-1.15 2.80201,-2.55556l0,-10.35l3.08221,5.23889c0.5604,0.89444 1.5411,1.27778 2.52181,1.27778c0.9807,0 1.9614,-0.51111 2.52181,-1.27778l3.08221,-5.23889l0,10.35c0,1.40556 1.2609,2.55556 2.80201,2.55556s2.80201,-1.15 2.80201,-2.55556l0,-20.44444c0,-1.40556 -1.2609,-2.55556 -2.80201,-2.55556c-1.1208,0 -1.9614,0.51111 -2.38171,1.27778c0,0 -6.02431,9.96667 -6.02431,9.96667s-5.88421,-9.96667 -6.02431,-9.96667c-0.4203,-0.76667 -1.401,-1.27778 -2.38171,-1.27778c-1.5411,0 -2.80201,1.15 -2.80201,2.55556l0,20.44444c0,1.40556 1.2609,2.55556 2.80201,2.55556zm-68.64915,-0.12778c1.401,0.51111 3.08221,-0.25556 3.50251,-1.66111l1.2609,-3.32222l7.28522,0l1.2609,3.32222c0.5604,1.27778 2.1015,2.04444 3.50251,1.66111s2.2416,-1.91667 1.8213,-3.19444l-7.56542,-20.44444c-0.4203,-1.15 -1.1208,-1.78889 -2.66191,-1.78889c-1.5411,0 -2.38171,0.89444 -2.66191,1.78889c0,0 -7.56542,20.44444 -7.56542,20.44444c-0.4203,1.27778 0.4203,2.68333 1.8213,3.19444zm8.40602,-14.82222l1.6812,4.72778l-3.50251,0l1.8213,-4.72778zm43.29099,-98.26111l-15.27093,-8.05c-0.8406,-0.51111 -1.9614,-0.38333 -2.80201,0c0,0 -28.16016,14.82222 -28.16016,14.82222c-0.8406,0.38333 -1.401,1.27778 -1.401,2.17222l0,35.39444c0,0.76667 0.4203,1.78889 1.401,2.17222c0.2802,0.12778 47.6341,25.04444 47.6341,25.04444c0.4203,0.25556 0.8406,0.25556 1.2609,0.25556c0.5604,0 0.9807,-0.12778 1.401,-0.38333c0,0 28.16016,-14.82222 28.16016,-14.82222c0.8406,-0.51111 1.2609,-1.27778 1.2609,-2.17222c0,0 0,-35.26667 0,-35.52222c0,-0.38333 -0.1401,-0.76667 -0.4203,-1.15c-0.1401,-0.38333 -0.4203,-0.63889 -0.8406,-0.76667c0.1401,0 -32.08297,-16.99444 -32.08297,-16.99444c-0.1401,0 -0.1401,0 -0.1401,0zm-16.67194,-2.93889l9.80702,5.11111l-22.41605,11.75556l-9.80702,-5.11111l22.41605,-11.75556zm1.401,59.8l-26.61906,-14.05556l0,-29.51667l9.80702,5.11111l0,16.22778c0,1.02222 0.5604,1.78889 1.401,2.17222c0.4203,0.25556 15.41103,8.05 15.41103,8.05l0,12.01111zm15.41103,8.05l-9.80702,-5.11111l0,-16.22778c0,-0.89444 -0.5604,-1.78889 -1.401,-2.17222c-0.4203,-0.25556 -15.41103,-8.05 -15.41103,-8.05l0,-11.75556l26.61906,14.05556l0,29.26111zm28.02006,-11.75556l-22.41605,11.75556l0,-29.51667l22.41605,-11.75556l0,29.51667zm-25.21805,-22.10556l-26.61906,-14.05556l22.41605,-11.75556l26.61906,14.05556l-22.41605,11.75556z"/>
 </g>
</svg>