<?xml version="1.0" encoding="utf-8"?>
<svg version="1.1" preserveAspectRatio="xMidYMid meet" viewBox="0 -166.059 712 2792.059" width="712" height="2626" xmlns="http://www.w3.org/2000/svg">
  <defs>
    <path d="M97.86 67.61C78.1 59.01 114.05 48.25 205.7 35.35C297.34 22.45 401.89 19.23 519.33 25.68C621.96 29.44 650.77 64.38 605.77 130.5C560.77 196.61 387.35 294.98 85.51 425.6C60.81 428.29 66.3 442.53 101.97 468.33C137.65 494.13 307.56 512.95 611.73 524.77C692.27 579.06 711.96 619.92 670.8 647.33C609.06 688.45 462.53 753.76 352.22 792.46C278.69 818.26 186.21 869.6 74.81 946.47C50.66 970.12 72.34 995.11 139.84 1021.45C241.09 1060.96 534.15 1102.08 649.4 1120.62C726.23 1132.99 725.4 1170.61 646.93 1233.51C256.18 1408.74 69.05 1512.48 85.51 1544.73C110.21 1593.11 163.71 1606.01 362.93 1702.77C562.14 1799.52 657.63 1805.17 691.38 1820.49C725.13 1835.81 710.31 1900.31 674.09 1930.14C649.94 1950.03 543.48 1995.45 354.69 2066.41C30.91 2178.21 -41.54 2270.94 137.37 2344.58C316.28 2418.22 465.4 2456.78 584.75 2460.26C667.66 2459.55 667.66 2463.86 584.75 2473.2C460.39 2487.21 61.98 2339.53 44.37 2319.05C26.76 2298.57 -18.36 2288.87 60.88 2197.24C140.12 2105.61 624.37 1953.61 664.43 1912.65C704.49 1871.69 703.61 1832.88 635.38 1828.57C567.14 1824.26 117.01 1634.53 60.88 1559.07C4.75 1483.62 659.59 1219.51 681.6 1186.09C703.61 1152.68 686 1135.43 616.67 1126.8C547.33 1118.18 524.22 1131.12 148.93 1039.49C-226.37 947.86 556.14 691.3 627.67 656.81C699.21 622.31 651.89 542.54 580.35 542.54C508.81 542.54 200.65 525.29 95 486.49C24.56 460.61 23.46 434.02 91.7 406.71C547.33 197.59 706.91 80.45 570.44 55.29C433.97 30.14 299.34 36.61 166.53 74.7L97.86 67.61Z" id="b1Rwq3SyMJ"/>
    <path d="M192.95 70.92C192.95 82.53 183.58 91.95 172.04 91.95C160.5 91.95 151.13 82.53 151.13 70.92C151.13 59.32 160.5 49.9 172.04 49.9C183.58 49.9 192.95 59.32 192.95 70.92Z" id="hFsqFpSnY"/>
    <path d="M316.65 28.88C316.65 40.48 307.28 49.9 295.74 49.9C284.2 49.9 274.83 40.48 274.83 28.88C274.83 17.28 284.2 7.86 295.74 7.86C307.28 7.86 316.65 17.28 316.65 28.88Z" id="b1ko5Wjp0H"/>
    <path d="M611.38 28.88C611.38 40.48 602.02 49.9 590.47 49.9C578.93 49.9 569.56 40.48 569.56 28.88C569.56 17.28 578.93 7.86 590.47 7.86C602.02 7.86 611.38 17.28 611.38 28.88Z" id="doJRNFSV7"/>
    <path d="M587.61 137.33C587.61 148.93 578.24 158.35 566.7 158.35C555.16 158.35 545.79 148.93 545.79 137.33C545.79 125.73 555.16 116.31 566.7 116.31C578.24 116.31 587.61 125.73 587.61 137.33Z" id="dpCbJ9UHy"/>
    <path d="M302.35 306.36C302.35 317.96 292.98 327.38 281.43 327.38C269.89 327.38 260.52 317.96 260.52 306.36C260.52 294.75 269.89 285.33 281.43 285.33C292.98 285.33 302.35 294.75 302.35 306.36Z" id="ab1QFzv8o"/>
    <path d="M144.74 472.15C144.74 483.75 135.37 493.17 123.83 493.17C112.29 493.17 102.92 483.75 102.92 472.15C102.92 460.55 112.29 451.13 123.83 451.13C135.37 451.13 144.74 460.55 144.74 472.15Z" id="a32XSfos2J"/>
    <path d="M323.26 496.29C323.26 507.9 313.89 517.32 302.35 517.32C290.8 517.32 281.43 507.9 281.43 496.29C281.43 484.69 290.8 475.27 302.35 475.27C313.89 475.27 323.26 484.69 323.26 496.29Z" id="a1eTZJ6vyR"/>
    <path d="M697.45 589.86C697.45 601.47 688.08 610.88 676.54 610.88C665 610.88 655.63 601.47 655.63 589.86C655.63 578.26 665 568.84 676.54 568.84C688.08 568.84 697.45 578.26 697.45 589.86Z" id="bEMkTC0r"/>
    <path d="M598.84 694.86C598.84 706.46 589.47 715.88 577.93 715.88C566.39 715.88 557.02 706.46 557.02 694.86C557.02 683.26 566.39 673.84 577.93 673.84C589.47 673.84 598.84 683.26 598.84 694.86Z" id="aNymhZOQ4"/>
    <path d="M313.57 827.23C313.57 838.84 304.2 848.26 292.66 848.26C281.12 848.26 271.75 838.84 271.75 827.23C271.75 815.63 281.12 806.21 292.66 806.21C304.2 806.21 313.57 815.63 313.57 827.23Z" id="a1OiRFP9T"/>
    <path d="M151.13 872.94C151.13 884.54 141.76 893.96 130.22 893.96C118.67 893.96 109.31 884.54 109.31 872.94C109.31 861.34 118.67 851.92 130.22 851.92C141.76 851.92 151.13 861.34 151.13 872.94Z" id="d1yIWsBCFy"/>
    <path d="M115.25 984.4C115.25 996.01 105.88 1005.42 94.34 1005.42C82.8 1005.42 73.43 996.01 73.43 984.4C73.43 972.8 82.8 963.38 94.34 963.38C105.88 963.38 115.25 972.8 115.25 984.4Z" id="a2nthBLP84"/>
    <path d="M423.19 1073.66C423.19 1085.26 413.82 1094.68 402.28 1094.68C390.74 1094.68 381.37 1085.26 381.37 1073.66C381.37 1062.06 390.74 1052.64 402.28 1052.64C413.82 1052.64 423.19 1062.06 423.19 1073.66Z" id="b2qUWzxd7W"/>
    <path d="M598.84 1098.89C598.84 1110.49 589.47 1119.91 577.93 1119.91C566.39 1119.91 557.02 1110.49 557.02 1098.89C557.02 1087.28 566.39 1077.86 577.93 1077.86C589.47 1077.86 598.84 1087.28 598.84 1098.89Z" id="b6mrN5ELRy"/>
    <path d="M664.43 1241.29C664.43 1252.89 655.06 1262.31 643.52 1262.31C631.98 1262.31 622.61 1252.89 622.61 1241.29C622.61 1229.69 631.98 1220.27 643.52 1220.27C655.06 1220.27 664.43 1229.69 664.43 1241.29Z" id="badmysIhV"/>
    <path d="M372.12 1343.8C372.12 1355.4 362.75 1364.82 351.21 1364.82C339.67 1364.82 330.3 1355.4 330.3 1343.8C330.3 1332.2 339.67 1322.78 351.21 1322.78C362.75 1322.78 372.12 1332.2 372.12 1343.8Z" id="e2ifNJqvIe"/>
    <path d="M257 1438.02C257 1449.62 247.63 1459.04 236.09 1459.04C224.55 1459.04 215.18 1449.62 215.18 1438.02C215.18 1426.42 224.55 1417 236.09 1417C247.63 1417 257 1426.42 257 1438.02Z" id="eonU8Xyyt"/>
    <path d="M125.37 1524.69C125.37 1536.29 116 1545.71 104.46 1545.71C92.92 1545.71 83.55 1536.29 83.55 1524.69C83.55 1513.09 92.92 1503.67 104.46 1503.67C116 1503.67 125.37 1513.09 125.37 1524.69Z" id="a15v6BJPY3"/>
    <path d="M330.3 1677.54C330.3 1689.15 320.93 1698.56 309.39 1698.56C297.85 1698.56 288.48 1689.15 288.48 1677.54C288.48 1665.94 297.85 1656.52 309.39 1656.52C320.93 1656.52 330.3 1665.94 330.3 1677.54Z" id="b5b3szyuKN"/>
    <path d="M476.68 1773.92C476.68 1785.52 467.31 1794.94 455.76 1794.94C444.22 1794.94 434.85 1785.52 434.85 1773.92C434.85 1762.31 444.22 1752.89 455.76 1752.89C467.31 1752.89 476.68 1762.31 476.68 1773.92Z" id="abddNzpix"/>
    <path d="M663.11 1920.3C663.11 1931.91 653.74 1941.33 642.2 1941.33C630.66 1941.33 621.29 1931.91 621.29 1920.3C621.29 1908.7 630.66 1899.28 642.2 1899.28C653.74 1899.28 663.11 1908.7 663.11 1920.3Z" id="g2xFBD1BLF"/>
    <path d="M547.33 2000.51C547.33 2012.11 537.96 2021.53 526.42 2021.53C514.88 2021.53 505.51 2012.11 505.51 2000.51C505.51 1988.9 514.88 1979.49 526.42 1979.49C537.96 1979.49 547.33 1988.9 547.33 2000.51Z" id="d4tNAtVMNq"/>
    <path d="M401.4 2027.89C401.4 2039.49 392.03 2048.91 380.49 2048.91C368.94 2048.91 359.57 2039.49 359.57 2027.89C359.57 2016.29 368.94 2006.87 380.49 2006.87C392.03 2006.87 401.4 2016.29 401.4 2027.89Z" id="bmITzLItz"/>
    <path d="M136.1 2147.61C136.1 2159.21 126.73 2168.63 115.19 2168.63C103.65 2168.63 94.28 2159.21 94.28 2147.61C94.28 2136.01 103.65 2126.59 115.19 2126.59C126.73 2126.59 136.1 2136.01 136.1 2147.61Z" id="c7tV3tSTM3"/>
    <path d="M75.57 2255.27C75.57 2266.88 66.2 2276.29 54.66 2276.29C43.12 2276.29 33.75 2266.88 33.75 2255.27C33.75 2243.67 43.12 2234.25 54.66 2234.25C66.2 2234.25 75.57 2243.67 75.57 2255.27Z" id="eFzFsWw6C"/>
    <path d="M324.55 2424.23C324.55 2435.83 315.18 2445.25 303.64 2445.25C292.09 2445.25 282.72 2435.83 282.72 2424.23C282.72 2412.63 292.09 2403.21 303.64 2403.21C315.18 2403.21 324.55 2412.63 324.55 2424.23Z" id="baHQkC3Lh"/>
    <path d="M479.05 26.84C481.55 34.12 461.63 47.29 434.59 56.23C407.54 65.17 383.55 66.52 381.04 59.25C378.54 51.97 398.46 38.81 425.5 29.86C452.55 20.92 476.54 19.57 479.05 26.84Z" id="bx4GlHlf5"/>
    <path d="M336.02 137.33L336.02 137.33L262.12 137.33L336.02 137.33Z" id="b5TLG91adn"/>
    <path d="M480.1 25.03L384.54 63.8L383.28 60.82L478.84 22.05L480.1 25.03Z" id="f21xwHW1tb"/>
    <path d="M493.13 257.26C495.64 249.99 475.72 236.82 448.68 227.88C421.63 218.94 397.64 217.59 395.13 224.86C392.62 232.14 412.54 245.3 439.59 254.25C466.63 263.19 490.63 264.54 493.13 257.26Z" id="bplrDEYVb"/>
    <path d="M494.19 259.07L398.63 220.3L397.36 223.29L492.93 262.06L494.19 259.07Z" id="c1RwyPvT8q"/>
    <path d="M160.61 347.4C166.79 352.13 157.56 373.86 140.01 395.91C122.46 417.96 103.19 432.03 97.01 427.3C90.83 422.58 100.06 400.85 117.61 378.8C135.16 356.75 154.43 342.68 160.61 347.4Z" id="d27oNLlo80"/>
    <path d="M160.48 345.32L102.49 429.22L99.76 427.41L157.74 343.51L160.48 345.32Z" id="d4ohdzLl5s"/>
    <path d="M495.37 554.07C488.85 558.34 470.68 542.94 454.8 519.7C438.93 496.47 431.33 474.13 437.85 469.86C444.36 465.59 462.54 480.99 478.41 504.23C494.29 527.47 501.89 549.8 495.37 554.07Z" id="a7LGSzrQNE"/>
    <path d="M497.43 554.59L434.27 474.36L436.89 472.38L500.04 552.62L497.43 554.59Z" id="aJ7puKgA3"/>
    <path d="M446.98 707.66C453.16 712.39 443.93 734.12 426.38 756.17C408.83 778.22 389.56 792.29 383.38 787.57C377.2 782.84 386.43 761.11 403.98 739.06C421.53 717.01 440.8 702.94 446.98 707.66Z" id="a2J0sJiujL"/>
    <path d="M446.84 705.58L388.86 789.48L386.13 787.67L444.11 703.77L446.84 705.58Z" id="b7CaL3ofUL"/>
    <path d="M286.74 1084.42C281.12 1089.78 260.39 1077.88 240.46 1057.86C220.54 1037.84 208.92 1017.23 214.54 1011.87C220.15 1006.51 240.88 1018.41 260.81 1038.44C280.73 1058.46 292.35 1079.06 286.74 1084.42Z" id="bRYDf5r8f"/>
    <path d="M288.86 1084.57L211.85 1016.93L214.06 1014.52L291.06 1082.16L288.86 1084.57Z" id="e2s9Ggtds"/>
    <path d="M514.42 1252.19C520.6 1256.91 511.38 1278.64 493.82 1300.69C476.27 1322.74 457.01 1336.81 450.82 1332.09C444.64 1327.37 453.87 1305.63 471.42 1283.58C488.97 1261.53 508.24 1247.47 514.42 1252.19Z" id="c4kRMZNtrQ"/>
    <path d="M514.29 1250.11L456.3 1334.01L453.57 1332.19L511.55 1248.29L514.29 1250.11Z" id="c2RSSWDCbM"/>
    <path d="M207.38 1675.28C199.97 1677.77 186.41 1658.34 177.13 1631.9C167.85 1605.46 166.34 1581.96 173.75 1579.47C181.17 1576.97 194.72 1596.41 204 1622.85C213.28 1649.29 214.8 1672.78 207.38 1675.28Z" id="i27d5ALQsu"/>
    <path d="M209.24 1676.3L169.12 1582.92L172.16 1581.66L212.28 1675.05L209.24 1676.3Z" id="eC7o8azP"/>
    <path d="M573.12 1768.45C579 1763.37 599.11 1776.25 618.01 1797.2C636.91 1818.15 647.49 1839.29 641.61 1844.37C635.74 1849.46 615.62 1836.58 596.72 1815.62C577.82 1794.67 567.25 1773.53 573.12 1768.45Z" id="ewbUFD1rt"/>
    <path d="M571.01 1768.2L644.54 1839.45L642.22 1841.75L568.69 1770.5L571.01 1768.2Z" id="g2K5UFA6LF"/>
    <path d="M283.7 2059.29C277.83 2054.2 257.71 2067.09 238.81 2088.04C219.91 2108.99 209.34 2130.13 215.21 2135.21C221.09 2140.3 241.2 2127.41 260.1 2106.46C279 2085.51 289.58 2064.37 283.7 2059.29Z" id="e1kIRlqO01"/>
    <path d="M285.81 2059.04L212.28 2130.29L214.6 2132.59L288.13 2061.33L285.81 2059.04Z" id="a1QlwJZgYe"/>
    <path d="M200.39 2408.07C207.3 2404.44 201.94 2381.49 188.43 2356.86C174.93 2332.23 158.35 2315.18 151.45 2318.82C144.54 2322.45 149.9 2345.4 163.41 2370.03C176.91 2394.66 193.49 2411.71 200.39 2408.07Z" id="f5eXCTD3r"/>
    <path d="M199.9 2410.1L157.18 2317.83L154.17 2319.17L196.89 2411.44L199.9 2410.1Z" id="b2sQDO6Dyg"/>
    <path d="M161.66 2610.15C306.94 2638.18 478.63 2584.28 544.66 2573.5C610.69 2562.72 676.73 2513.13 673.43 2482.95C670.12 2452.77 628.3 2416.11 583.18 2425.82C538.06 2435.52 529.25 2451.69 470.92 2482.95C432.03 2503.79 390.21 2508.82 345.46 2498.04C258.88 2465.7 177.8 2458.87 102.23 2477.56C26.66 2496.24 -3.79 2520.68 10.88 2550.86C14.55 2571.7 64.81 2591.47 161.66 2610.15Z" id="hiFGxO87X"/>
  </defs>
  <g>
    <g>
      <g>
        <path d="M97.86 67.61C78.1 59.01 114.05 48.25 205.7 35.35C297.34 22.45 401.89 19.23 519.33 25.68C621.96 29.44 650.77 64.38 605.77 130.5C560.77 196.61 387.35 294.98 85.51 425.6C60.81 428.29 66.3 442.53 101.97 468.33C137.65 494.13 307.56 512.95 611.73 524.77C692.27 579.06 711.96 619.92 670.8 647.33C609.06 688.45 462.53 753.76 352.22 792.46C278.69 818.26 186.21 869.6 74.81 946.47C50.66 970.12 72.34 995.11 139.84 1021.45C241.09 1060.96 534.15 1102.08 649.4 1120.62C726.23 1132.99 725.4 1170.61 646.93 1233.51C256.18 1408.74 69.05 1512.48 85.51 1544.73C110.21 1593.11 163.71 1606.01 362.93 1702.77C562.14 1799.52 657.63 1805.17 691.38 1820.49C725.13 1835.81 710.31 1900.31 674.09 1930.14C649.94 1950.03 543.48 1995.45 354.69 2066.41C30.91 2178.21 -41.54 2270.94 137.37 2344.58C316.28 2418.22 465.4 2456.78 584.75 2460.26C667.66 2459.55 667.66 2463.86 584.75 2473.2C460.39 2487.21 61.98 2339.53 44.37 2319.05C26.76 2298.57 -18.36 2288.87 60.88 2197.24C140.12 2105.61 624.37 1953.61 664.43 1912.65C704.49 1871.69 703.61 1832.88 635.38 1828.57C567.14 1824.26 117.01 1634.53 60.88 1559.07C4.75 1483.62 659.59 1219.51 681.6 1186.09C703.61 1152.68 686 1135.43 616.67 1126.8C547.33 1118.18 524.22 1131.12 148.93 1039.49C-226.37 947.86 556.14 691.3 627.67 656.81C699.21 622.31 651.89 542.54 580.35 542.54C508.81 542.54 200.65 525.29 95 486.49C24.56 460.61 23.46 434.02 91.7 406.71C547.33 197.59 706.91 80.45 570.44 55.29C433.97 30.14 299.34 36.61 166.53 74.7L97.86 67.61Z" transform="matrix(1, 0, 0, 1, 0, 0)" opacity="1" fill="#985f00" fill-opacity="1"/>
        <g>
          <path d="M97.86 67.61C78.1 59.01 114.05 48.25 205.7 35.35C297.34 22.45 401.89 19.23 519.33 25.68C621.96 29.44 650.77 64.38 605.77 130.5C560.77 196.61 387.35 294.98 85.51 425.6C60.81 428.29 66.3 442.53 101.97 468.33C137.65 494.13 307.56 512.95 611.73 524.77C692.27 579.06 711.96 619.92 670.8 647.33C609.06 688.45 462.53 753.76 352.22 792.46C278.69 818.26 186.21 869.6 74.81 946.47C50.66 970.12 72.34 995.11 139.84 1021.45C241.09 1060.96 534.15 1102.08 649.4 1120.62C726.23 1132.99 725.4 1170.61 646.93 1233.51C256.18 1408.74 69.05 1512.48 85.51 1544.73C110.21 1593.11 163.71 1606.01 362.93 1702.77C562.14 1799.52 657.63 1805.17 691.38 1820.49C725.13 1835.81 710.31 1900.31 674.09 1930.14C649.94 1950.03 543.48 1995.45 354.69 2066.41C30.91 2178.21 -41.54 2270.94 137.37 2344.58C316.28 2418.22 465.4 2456.78 584.75 2460.26C667.66 2459.55 667.66 2463.86 584.75 2473.2C460.39 2487.21 61.98 2339.53 44.37 2319.05C26.76 2298.57 -18.36 2288.87 60.88 2197.24C140.12 2105.61 624.37 1953.61 664.43 1912.65C704.49 1871.69 703.61 1832.88 635.38 1828.57C567.14 1824.26 117.01 1634.53 60.88 1559.07C4.75 1483.62 659.59 1219.51 681.6 1186.09C703.61 1152.68 686 1135.43 616.67 1126.8C547.33 1118.18 524.22 1131.12 148.93 1039.49C-226.37 947.86 556.14 691.3 627.67 656.81C699.21 622.31 651.89 542.54 580.35 542.54C508.81 542.54 200.65 525.29 95 486.49C24.56 460.61 23.46 434.02 91.7 406.71C547.33 197.59 706.91 80.45 570.44 55.29C433.97 30.14 299.34 36.61 166.53 74.7L97.86 67.61Z" transform="matrix(1, 0, 0, 1, 0, 0)" opacity="1" fill-opacity="0" stroke="#230d00" stroke-width="1" stroke-opacity="1"/>
        </g>
      </g>
      <g>
        <path d="M192.95 70.92C192.95 82.53 183.58 91.95 172.04 91.95C160.5 91.95 151.13 82.53 151.13 70.92C151.13 59.32 160.5 49.9 172.04 49.9C183.58 49.9 192.95 59.32 192.95 70.92Z" transform="matrix(1, 0, 0, 1, 0, 0)" opacity="1" fill="#8f5604" fill-opacity="1"/>
        <g>
          <path d="M192.95 70.92C192.95 82.53 183.58 91.95 172.04 91.95C160.5 91.95 151.13 82.53 151.13 70.92C151.13 59.32 160.5 49.9 172.04 49.9C183.58 49.9 192.95 59.32 192.95 70.92Z" transform="matrix(1, 0, 0, 1, 0, 0)" opacity="1" fill-opacity="0" stroke="#472c06" stroke-width="5" stroke-opacity="1"/>
        </g>
      </g>
      <g>
        <path d="M316.65 28.88C316.65 40.48 307.28 49.9 295.74 49.9C284.2 49.9 274.83 40.48 274.83 28.88C274.83 17.28 284.2 7.86 295.74 7.86C307.28 7.86 316.65 17.28 316.65 28.88Z" transform="matrix(1, 0, 0, 1, 0, 0)" opacity="1" fill="#8f5604" fill-opacity="1"/>
        <g>
          <path d="M316.65 28.88C316.65 40.48 307.28 49.9 295.74 49.9C284.2 49.9 274.83 40.48 274.83 28.88C274.83 17.28 284.2 7.86 295.74 7.86C307.28 7.86 316.65 17.28 316.65 28.88Z" transform="matrix(1, 0, 0, 1, 0, 0)" opacity="1" fill-opacity="0" stroke="#472c06" stroke-width="5" stroke-opacity="1"/>
        </g>
      </g>
      <g>
        <path d="M611.38 28.88C611.38 40.48 602.02 49.9 590.47 49.9C578.93 49.9 569.56 40.48 569.56 28.88C569.56 17.28 578.93 7.86 590.47 7.86C602.02 7.86 611.38 17.28 611.38 28.88Z" transform="matrix(1, 0, 0, 1, 0, 0)" opacity="1" fill="#8f5604" fill-opacity="1"/>
        <g>
          <path d="M611.38 28.88C611.38 40.48 602.02 49.9 590.47 49.9C578.93 49.9 569.56 40.48 569.56 28.88C569.56 17.28 578.93 7.86 590.47 7.86C602.02 7.86 611.38 17.28 611.38 28.88Z" transform="matrix(1, 0, 0, 1, 0, 0)" opacity="1" fill-opacity="0" stroke="#472c06" stroke-width="5" stroke-opacity="1"/>
        </g>
      </g>
      <g>
        <path d="M587.61 137.33C587.61 148.93 578.24 158.35 566.7 158.35C555.16 158.35 545.79 148.93 545.79 137.33C545.79 125.73 555.16 116.31 566.7 116.31C578.24 116.31 587.61 125.73 587.61 137.33Z" transform="matrix(1, 0, 0, 1, 0, 0)" opacity="1" fill="#8f5604" fill-opacity="1"/>
        <g>
          <path d="M587.61 137.33C587.61 148.93 578.24 158.35 566.7 158.35C555.16 158.35 545.79 148.93 545.79 137.33C545.79 125.73 555.16 116.31 566.7 116.31C578.24 116.31 587.61 125.73 587.61 137.33Z" transform="matrix(1, 0, 0, 1, 0, 0)" opacity="1" fill-opacity="0" stroke="#472c06" stroke-width="5" stroke-opacity="1"/>
        </g>
      </g>
      <g>
        <path d="M302.35 306.36C302.35 317.96 292.98 327.38 281.43 327.38C269.89 327.38 260.52 317.96 260.52 306.36C260.52 294.75 269.89 285.33 281.43 285.33C292.98 285.33 302.35 294.75 302.35 306.36Z" transform="matrix(1, 0, 0, 1, 0, 0)" opacity="1" fill="#8f5604" fill-opacity="1"/>
        <g>
          <path d="M302.35 306.36C302.35 317.96 292.98 327.38 281.43 327.38C269.89 327.38 260.52 317.96 260.52 306.36C260.52 294.75 269.89 285.33 281.43 285.33C292.98 285.33 302.35 294.75 302.35 306.36Z" transform="matrix(1, 0, 0, 1, 0, 0)" opacity="1" fill-opacity="0" stroke="#472c06" stroke-width="5" stroke-opacity="1"/>
        </g>
      </g>
      <g>
        <path d="M144.74 472.15C144.74 483.75 135.37 493.17 123.83 493.17C112.29 493.17 102.92 483.75 102.92 472.15C102.92 460.55 112.29 451.13 123.83 451.13C135.37 451.13 144.74 460.55 144.74 472.15Z" transform="matrix(1, 0, 0, 1, 0, 0)" opacity="1" fill="#8f5604" fill-opacity="1"/>
        <g>
          <path d="M144.74 472.15C144.74 483.75 135.37 493.17 123.83 493.17C112.29 493.17 102.92 483.75 102.92 472.15C102.92 460.55 112.29 451.13 123.83 451.13C135.37 451.13 144.74 460.55 144.74 472.15Z" transform="matrix(1, 0, 0, 1, 0, 0)" opacity="1" fill-opacity="0" stroke="#472c06" stroke-width="5" stroke-opacity="1"/>
        </g>
      </g>
      <g>
        <path d="M323.26 496.29C323.26 507.9 313.89 517.32 302.35 517.32C290.8 517.32 281.43 507.9 281.43 496.29C281.43 484.69 290.8 475.27 302.35 475.27C313.89 475.27 323.26 484.69 323.26 496.29Z" transform="matrix(1, 0, 0, 1, 0, 0)" opacity="1" fill="#8f5604" fill-opacity="1"/>
        <g>
          <path d="M323.26 496.29C323.26 507.9 313.89 517.32 302.35 517.32C290.8 517.32 281.43 507.9 281.43 496.29C281.43 484.69 290.8 475.27 302.35 475.27C313.89 475.27 323.26 484.69 323.26 496.29Z" transform="matrix(1, 0, 0, 1, 0, 0)" opacity="1" fill-opacity="0" stroke="#472c06" stroke-width="5" stroke-opacity="1"/>
        </g>
      </g>
      <g>
        <path d="M697.45 589.86C697.45 601.47 688.08 610.88 676.54 610.88C665 610.88 655.63 601.47 655.63 589.86C655.63 578.26 665 568.84 676.54 568.84C688.08 568.84 697.45 578.26 697.45 589.86Z" transform="matrix(1, 0, 0, 1, 0, 0)" opacity="1" fill="#8f5604" fill-opacity="1"/>
        <g>
          <path d="M697.45 589.86C697.45 601.47 688.08 610.88 676.54 610.88C665 610.88 655.63 601.47 655.63 589.86C655.63 578.26 665 568.84 676.54 568.84C688.08 568.84 697.45 578.26 697.45 589.86Z" transform="matrix(1, 0, 0, 1, 0, 0)" opacity="1" fill-opacity="0" stroke="#472c06" stroke-width="5" stroke-opacity="1"/>
        </g>
      </g>
      <g>
        <path d="M598.84 694.86C598.84 706.46 589.47 715.88 577.93 715.88C566.39 715.88 557.02 706.46 557.02 694.86C557.02 683.26 566.39 673.84 577.93 673.84C589.47 673.84 598.84 683.26 598.84 694.86Z" transform="matrix(1, 0, 0, 1, 0, 0)" opacity="1" fill="#8f5604" fill-opacity="1"/>
        <g>
          <path d="M598.84 694.86C598.84 706.46 589.47 715.88 577.93 715.88C566.39 715.88 557.02 706.46 557.02 694.86C557.02 683.26 566.39 673.84 577.93 673.84C589.47 673.84 598.84 683.26 598.84 694.86Z" transform="matrix(1, 0, 0, 1, 0, 0)" opacity="1" fill-opacity="0" stroke="#472c06" stroke-width="5" stroke-opacity="1"/>
        </g>
      </g>
      <g>
        <path d="M313.57 827.23C313.57 838.84 304.2 848.26 292.66 848.26C281.12 848.26 271.75 838.84 271.75 827.23C271.75 815.63 281.12 806.21 292.66 806.21C304.2 806.21 313.57 815.63 313.57 827.23Z" transform="matrix(1, 0, 0, 1, 0, 0)" opacity="1" fill="#8f5604" fill-opacity="1"/>
        <g>
          <path d="M313.57 827.23C313.57 838.84 304.2 848.26 292.66 848.26C281.12 848.26 271.75 838.84 271.75 827.23C271.75 815.63 281.12 806.21 292.66 806.21C304.2 806.21 313.57 815.63 313.57 827.23Z" transform="matrix(1, 0, 0, 1, 0, 0)" opacity="1" fill-opacity="0" stroke="#472c06" stroke-width="5" stroke-opacity="1"/>
        </g>
      </g>
      <g>
        <path d="M151.13 872.94C151.13 884.54 141.76 893.96 130.22 893.96C118.67 893.96 109.31 884.54 109.31 872.94C109.31 861.34 118.67 851.92 130.22 851.92C141.76 851.92 151.13 861.34 151.13 872.94Z" transform="matrix(1, 0, 0, 1, 0, 0)" opacity="1" fill="#8f5604" fill-opacity="1"/>
        <g>
          <path d="M151.13 872.94C151.13 884.54 141.76 893.96 130.22 893.96C118.67 893.96 109.31 884.54 109.31 872.94C109.31 861.34 118.67 851.92 130.22 851.92C141.76 851.92 151.13 861.34 151.13 872.94Z" transform="matrix(1, 0, 0, 1, 0, 0)" opacity="1" fill-opacity="0" stroke="#472c06" stroke-width="5" stroke-opacity="1"/>
        </g>
      </g>
      <g>
        <path d="M115.25 984.4C115.25 996.01 105.88 1005.42 94.34 1005.42C82.8 1005.42 73.43 996.01 73.43 984.4C73.43 972.8 82.8 963.38 94.34 963.38C105.88 963.38 115.25 972.8 115.25 984.4Z" transform="matrix(1, 0, 0, 1, 0, 0)" opacity="1" fill="#8f5604" fill-opacity="1"/>
        <g>
          <path d="M115.25 984.4C115.25 996.01 105.88 1005.42 94.34 1005.42C82.8 1005.42 73.43 996.01 73.43 984.4C73.43 972.8 82.8 963.38 94.34 963.38C105.88 963.38 115.25 972.8 115.25 984.4Z" transform="matrix(1, 0, 0, 1, 0, 0)" opacity="1" fill-opacity="0" stroke="#472c06" stroke-width="5" stroke-opacity="1"/>
        </g>
      </g>
      <g>
        <path d="M423.19 1073.66C423.19 1085.26 413.82 1094.68 402.28 1094.68C390.74 1094.68 381.37 1085.26 381.37 1073.66C381.37 1062.06 390.74 1052.64 402.28 1052.64C413.82 1052.64 423.19 1062.06 423.19 1073.66Z" transform="matrix(1, 0, 0, 1, 0, 0)" opacity="1" fill="#8f5604" fill-opacity="1"/>
        <g>
          <path d="M423.19 1073.66C423.19 1085.26 413.82 1094.68 402.28 1094.68C390.74 1094.68 381.37 1085.26 381.37 1073.66C381.37 1062.06 390.74 1052.64 402.28 1052.64C413.82 1052.64 423.19 1062.06 423.19 1073.66Z" transform="matrix(1, 0, 0, 1, 0, 0)" opacity="1" fill-opacity="0" stroke="#472c06" stroke-width="5" stroke-opacity="1"/>
        </g>
      </g>
      <g>
        <path d="M598.84 1098.89C598.84 1110.49 589.47 1119.91 577.93 1119.91C566.39 1119.91 557.02 1110.49 557.02 1098.89C557.02 1087.28 566.39 1077.86 577.93 1077.86C589.47 1077.86 598.84 1087.28 598.84 1098.89Z" transform="matrix(1, 0, 0, 1, 0, 0)" opacity="1" fill="#8f5604" fill-opacity="1"/>
        <g>
          <path d="M598.84 1098.89C598.84 1110.49 589.47 1119.91 577.93 1119.91C566.39 1119.91 557.02 1110.49 557.02 1098.89C557.02 1087.28 566.39 1077.86 577.93 1077.86C589.47 1077.86 598.84 1087.28 598.84 1098.89Z" transform="matrix(1, 0, 0, 1, 0, 0)" opacity="1" fill-opacity="0" stroke="#472c06" stroke-width="5" stroke-opacity="1"/>
        </g>
      </g>
      <g>
        <path d="M664.43 1241.29C664.43 1252.89 655.06 1262.31 643.52 1262.31C631.98 1262.31 622.61 1252.89 622.61 1241.29C622.61 1229.69 631.98 1220.27 643.52 1220.27C655.06 1220.27 664.43 1229.69 664.43 1241.29Z" transform="matrix(1, 0, 0, 1, 0, 0)" opacity="1" fill="#8f5604" fill-opacity="1"/>
        <g>
          <path d="M664.43 1241.29C664.43 1252.89 655.06 1262.31 643.52 1262.31C631.98 1262.31 622.61 1252.89 622.61 1241.29C622.61 1229.69 631.98 1220.27 643.52 1220.27C655.06 1220.27 664.43 1229.69 664.43 1241.29Z" transform="matrix(1, 0, 0, 1, 0, 0)" opacity="1" fill-opacity="0" stroke="#472c06" stroke-width="5" stroke-opacity="1"/>
        </g>
      </g>
      <g>
        <path d="M372.12 1343.8C372.12 1355.4 362.75 1364.82 351.21 1364.82C339.67 1364.82 330.3 1355.4 330.3 1343.8C330.3 1332.2 339.67 1322.78 351.21 1322.78C362.75 1322.78 372.12 1332.2 372.12 1343.8Z" transform="matrix(1, 0, 0, 1, 0, 0)" opacity="1" fill="#8f5604" fill-opacity="1"/>
        <g>
          <path d="M372.12 1343.8C372.12 1355.4 362.75 1364.82 351.21 1364.82C339.67 1364.82 330.3 1355.4 330.3 1343.8C330.3 1332.2 339.67 1322.78 351.21 1322.78C362.75 1322.78 372.12 1332.2 372.12 1343.8Z" transform="matrix(1, 0, 0, 1, 0, 0)" opacity="1" fill-opacity="0" stroke="#472c06" stroke-width="5" stroke-opacity="1"/>
        </g>
      </g>
      <g>
        <path d="M257 1438.02C257 1449.62 247.63 1459.04 236.09 1459.04C224.55 1459.04 215.18 1449.62 215.18 1438.02C215.18 1426.42 224.55 1417 236.09 1417C247.63 1417 257 1426.42 257 1438.02Z" transform="matrix(1, 0, 0, 1, 0, 0)" opacity="1" fill="#8f5604" fill-opacity="1"/>
        <g>
          <path d="M257 1438.02C257 1449.62 247.63 1459.04 236.09 1459.04C224.55 1459.04 215.18 1449.62 215.18 1438.02C215.18 1426.42 224.55 1417 236.09 1417C247.63 1417 257 1426.42 257 1438.02Z" transform="matrix(1, 0, 0, 1, 0, 0)" opacity="1" fill-opacity="0" stroke="#472c06" stroke-width="5" stroke-opacity="1"/>
        </g>
      </g>
      <g>
        <path d="M125.37 1524.69C125.37 1536.29 116 1545.71 104.46 1545.71C92.92 1545.71 83.55 1536.29 83.55 1524.69C83.55 1513.09 92.92 1503.67 104.46 1503.67C116 1503.67 125.37 1513.09 125.37 1524.69Z" transform="matrix(1, 0, 0, 1, 0, 0)" opacity="1" fill="#8f5604" fill-opacity="1"/>
        <g>
          <path d="M125.37 1524.69C125.37 1536.29 116 1545.71 104.46 1545.71C92.92 1545.71 83.55 1536.29 83.55 1524.69C83.55 1513.09 92.92 1503.67 104.46 1503.67C116 1503.67 125.37 1513.09 125.37 1524.69Z" transform="matrix(1, 0, 0, 1, 0, 0)" opacity="1" fill-opacity="0" stroke="#472c06" stroke-width="5" stroke-opacity="1"/>
        </g>
      </g>
      <g>
        <path d="M330.3 1677.54C330.3 1689.15 320.93 1698.56 309.39 1698.56C297.85 1698.56 288.48 1689.15 288.48 1677.54C288.48 1665.94 297.85 1656.52 309.39 1656.52C320.93 1656.52 330.3 1665.94 330.3 1677.54Z" transform="matrix(1, 0, 0, 1, 0, 0)" opacity="1" fill="#8f5604" fill-opacity="1"/>
        <g>
          <path d="M330.3 1677.54C330.3 1689.15 320.93 1698.56 309.39 1698.56C297.85 1698.56 288.48 1689.15 288.48 1677.54C288.48 1665.94 297.85 1656.52 309.39 1656.52C320.93 1656.52 330.3 1665.94 330.3 1677.54Z" transform="matrix(1, 0, 0, 1, 0, 0)" opacity="1" fill-opacity="0" stroke="#472c06" stroke-width="5" stroke-opacity="1"/>
        </g>
      </g>
      <g>
        <path d="M476.68 1773.92C476.68 1785.52 467.31 1794.94 455.76 1794.94C444.22 1794.94 434.85 1785.52 434.85 1773.92C434.85 1762.31 444.22 1752.89 455.76 1752.89C467.31 1752.89 476.68 1762.31 476.68 1773.92Z" transform="matrix(1, 0, 0, 1, 0, 0)" opacity="1" fill="#8f5604" fill-opacity="1"/>
        <g>
          <path d="M476.68 1773.92C476.68 1785.52 467.31 1794.94 455.76 1794.94C444.22 1794.94 434.85 1785.52 434.85 1773.92C434.85 1762.31 444.22 1752.89 455.76 1752.89C467.31 1752.89 476.68 1762.31 476.68 1773.92Z" transform="matrix(1, 0, 0, 1, 0, 0)" opacity="1" fill-opacity="0" stroke="#472c06" stroke-width="5" stroke-opacity="1"/>
        </g>
      </g>
      <g>
        <path d="M663.11 1920.3C663.11 1931.91 653.74 1941.33 642.2 1941.33C630.66 1941.33 621.29 1931.91 621.29 1920.3C621.29 1908.7 630.66 1899.28 642.2 1899.28C653.74 1899.28 663.11 1908.7 663.11 1920.3Z" transform="matrix(1, 0, 0, 1, 0, 0)" opacity="1" fill="#8f5604" fill-opacity="1"/>
        <g>
          <path d="M663.11 1920.3C663.11 1931.91 653.74 1941.33 642.2 1941.33C630.66 1941.33 621.29 1931.91 621.29 1920.3C621.29 1908.7 630.66 1899.28 642.2 1899.28C653.74 1899.28 663.11 1908.7 663.11 1920.3Z" transform="matrix(1, 0, 0, 1, 0, 0)" opacity="1" fill-opacity="0" stroke="#472c06" stroke-width="5" stroke-opacity="1"/>
        </g>
      </g>
      <g>
        <path d="M547.33 2000.51C547.33 2012.11 537.96 2021.53 526.42 2021.53C514.88 2021.53 505.51 2012.11 505.51 2000.51C505.51 1988.9 514.88 1979.49 526.42 1979.49C537.96 1979.49 547.33 1988.9 547.33 2000.51Z" transform="matrix(1, 0, 0, 1, 0, 0)" opacity="1" fill="#8f5604" fill-opacity="1"/>
        <g>
          <path d="M547.33 2000.51C547.33 2012.11 537.96 2021.53 526.42 2021.53C514.88 2021.53 505.51 2012.11 505.51 2000.51C505.51 1988.9 514.88 1979.49 526.42 1979.49C537.96 1979.49 547.33 1988.9 547.33 2000.51Z" transform="matrix(1, 0, 0, 1, 0, 0)" opacity="1" fill-opacity="0" stroke="#472c06" stroke-width="5" stroke-opacity="1"/>
        </g>
      </g>
      <g>
        <path d="M401.4 2027.89C401.4 2039.49 392.03 2048.91 380.49 2048.91C368.94 2048.91 359.57 2039.49 359.57 2027.89C359.57 2016.29 368.94 2006.87 380.49 2006.87C392.03 2006.87 401.4 2016.29 401.4 2027.89Z" transform="matrix(1, 0, 0, 1, 0, 0)" opacity="1" fill="#8f5604" fill-opacity="1"/>
        <g>
          <path d="M401.4 2027.89C401.4 2039.49 392.03 2048.91 380.49 2048.91C368.94 2048.91 359.57 2039.49 359.57 2027.89C359.57 2016.29 368.94 2006.87 380.49 2006.87C392.03 2006.87 401.4 2016.29 401.4 2027.89Z" transform="matrix(1, 0, 0, 1, 0, 0)" opacity="1" fill-opacity="0" stroke="#472c06" stroke-width="5" stroke-opacity="1"/>
        </g>
      </g>
      <g>
        <path d="M136.1 2147.61C136.1 2159.21 126.73 2168.63 115.19 2168.63C103.65 2168.63 94.28 2159.21 94.28 2147.61C94.28 2136.01 103.65 2126.59 115.19 2126.59C126.73 2126.59 136.1 2136.01 136.1 2147.61Z" transform="matrix(1, 0, 0, 1, 0, 0)" opacity="1" fill="#8f5604" fill-opacity="1"/>
        <g>
          <path d="M136.1 2147.61C136.1 2159.21 126.73 2168.63 115.19 2168.63C103.65 2168.63 94.28 2159.21 94.28 2147.61C94.28 2136.01 103.65 2126.59 115.19 2126.59C126.73 2126.59 136.1 2136.01 136.1 2147.61Z" transform="matrix(1, 0, 0, 1, 0, 0)" opacity="1" fill-opacity="0" stroke="#472c06" stroke-width="5" stroke-opacity="1"/>
        </g>
      </g>
      <g>
        <path d="M75.57 2255.27C75.57 2266.88 66.2 2276.29 54.66 2276.29C43.12 2276.29 33.75 2266.88 33.75 2255.27C33.75 2243.67 43.12 2234.25 54.66 2234.25C66.2 2234.25 75.57 2243.67 75.57 2255.27Z" transform="matrix(1, 0, 0, 1, 0, 0)" opacity="1" fill="#8f5604" fill-opacity="1"/>
        <g>
          <path d="M75.57 2255.27C75.57 2266.88 66.2 2276.29 54.66 2276.29C43.12 2276.29 33.75 2266.88 33.75 2255.27C33.75 2243.67 43.12 2234.25 54.66 2234.25C66.2 2234.25 75.57 2243.67 75.57 2255.27Z" transform="matrix(1, 0, 0, 1, 0, 0)" opacity="1" fill-opacity="0" stroke="#472c06" stroke-width="5" stroke-opacity="1"/>
        </g>
      </g>
      <g>
        <path d="M324.55 2424.23C324.55 2435.83 315.18 2445.25 303.64 2445.25C292.09 2445.25 282.72 2435.83 282.72 2424.23C282.72 2412.63 292.09 2403.21 303.64 2403.21C315.18 2403.21 324.55 2412.63 324.55 2424.23Z" transform="matrix(1, 0, 0, 1, 0, 0)" opacity="1" fill="#8f5604" fill-opacity="1"/>
        <g>
          <path d="M324.55 2424.23C324.55 2435.83 315.18 2445.25 303.64 2445.25C292.09 2445.25 282.72 2435.83 282.72 2424.23C282.72 2412.63 292.09 2403.21 303.64 2403.21C315.18 2403.21 324.55 2412.63 324.55 2424.23Z" transform="matrix(1, 0, 0, 1, 0, 0)" opacity="1" fill-opacity="0" stroke="#472c06" stroke-width="5" stroke-opacity="1"/>
        </g>
      </g>
      <g>
        <path d="M479.05 26.84C481.55 34.12 461.63 47.29 434.59 56.23C407.54 65.17 383.55 66.52 381.04 59.25C378.54 51.97 398.46 38.81 425.5 29.86C452.55 20.92 476.54 19.57 479.05 26.84Z" transform="matrix(1, 0, 0, 1, 0, 0)" opacity="1" fill="#cb700e" fill-opacity="1"/>
        <g>
          <path d="M479.05 26.84C481.55 34.12 461.63 47.29 434.59 56.23C407.54 65.17 383.55 66.52 381.04 59.25C378.54 51.97 398.46 38.81 425.5 29.86C452.55 20.92 476.54 19.57 479.05 26.84Z" transform="matrix(1, 0, 0, 1, 0, 0)" opacity="1" fill-opacity="0" stroke="#664203" stroke-width="3" stroke-opacity="1"/>
        </g>
      </g>
      <g>
        <path d="M336.02 137.33L336.02 137.33L262.12 137.33L336.02 137.33Z" transform="matrix(1, 0, 0, 1, 0, 0)" opacity="1" fill="#cb700e" fill-opacity="1"/>
      </g>
      <g>
        <path d="M480.1 25.03L384.54 63.8L383.28 60.82L478.84 22.05L480.1 25.03Z" transform="matrix(1, 0, 0, 1, 0, 0)" opacity="1" fill="#4b2b08" fill-opacity="1"/>
      </g>
      <g>
        <path d="M493.13 257.26C495.64 249.99 475.72 236.82 448.68 227.88C421.63 218.94 397.64 217.59 395.13 224.86C392.62 232.14 412.54 245.3 439.59 254.25C466.63 263.19 490.63 264.54 493.13 257.26Z" transform="matrix(1, 0, 0, 1, 0, 0)" opacity="1" fill="#cb700e" fill-opacity="1"/>
        <g>
          <path d="M493.13 257.26C495.64 249.99 475.72 236.82 448.68 227.88C421.63 218.94 397.64 217.59 395.13 224.86C392.62 232.14 412.54 245.3 439.59 254.25C466.63 263.19 490.63 264.54 493.13 257.26Z" transform="matrix(1, 0, 0, 1, 0, 0)" opacity="1" fill-opacity="0" stroke="#664203" stroke-width="3" stroke-opacity="1"/>
        </g>
      </g>
      <g>
        <path d="M494.19 259.07L398.63 220.3L397.36 223.29L492.93 262.06L494.19 259.07Z" transform="matrix(1, 0, 0, 1, 0, 0)" opacity="1" fill="#4b2b08" fill-opacity="1"/>
      </g>
      <g>
        <path d="M160.61 347.4C166.79 352.13 157.56 373.86 140.01 395.91C122.46 417.96 103.19 432.03 97.01 427.3C90.83 422.58 100.06 400.85 117.61 378.8C135.16 356.75 154.43 342.68 160.61 347.4Z" transform="matrix(1, 0, 0, 1, 0, 0)" opacity="1" fill="#cb700e" fill-opacity="1"/>
        <g>
          <path d="M160.61 347.4C166.79 352.13 157.56 373.86 140.01 395.91C122.46 417.96 103.19 432.03 97.01 427.3C90.83 422.58 100.06 400.85 117.61 378.8C135.16 356.75 154.43 342.68 160.61 347.4Z" transform="matrix(1, 0, 0, 1, 0, 0)" opacity="1" fill-opacity="0" stroke="#664203" stroke-width="3" stroke-opacity="1"/>
        </g>
      </g>
      <g>
        <path d="M160.48 345.32L102.49 429.22L99.76 427.41L157.74 343.51L160.48 345.32Z" transform="matrix(1, 0, 0, 1, 0, 0)" opacity="1" fill="#4b2b08" fill-opacity="1"/>
      </g>
      <g>
        <path d="M495.37 554.07C488.85 558.34 470.68 542.94 454.8 519.7C438.93 496.47 431.33 474.13 437.85 469.86C444.36 465.59 462.54 480.99 478.41 504.23C494.29 527.47 501.89 549.8 495.37 554.07Z" transform="matrix(1, 0, 0, 1, 0, 0)" opacity="1" fill="#cb700e" fill-opacity="1"/>
        <g>
          <path d="M495.37 554.07C488.85 558.34 470.68 542.94 454.8 519.7C438.93 496.47 431.33 474.13 437.85 469.86C444.36 465.59 462.54 480.99 478.41 504.23C494.29 527.47 501.89 549.8 495.37 554.07Z" transform="matrix(1, 0, 0, 1, 0, 0)" opacity="1" fill-opacity="0" stroke="#664203" stroke-width="3" stroke-opacity="1"/>
        </g>
      </g>
      <g>
        <path d="M497.43 554.59L434.27 474.36L436.89 472.38L500.04 552.62L497.43 554.59Z" transform="matrix(1, 0, 0, 1, 0, 0)" opacity="1" fill="#4b2b08" fill-opacity="1"/>
      </g>
      <g>
        <path d="M446.98 707.66C453.16 712.39 443.93 734.12 426.38 756.17C408.83 778.22 389.56 792.29 383.38 787.57C377.2 782.84 386.43 761.11 403.98 739.06C421.53 717.01 440.8 702.94 446.98 707.66Z" transform="matrix(1, 0, 0, 1, 0, 0)" opacity="1" fill="#cb700e" fill-opacity="1"/>
        <g>
          <path d="M446.98 707.66C453.16 712.39 443.93 734.12 426.38 756.17C408.83 778.22 389.56 792.29 383.38 787.57C377.2 782.84 386.43 761.11 403.98 739.06C421.53 717.01 440.8 702.94 446.98 707.66Z" transform="matrix(1, 0, 0, 1, 0, 0)" opacity="1" fill-opacity="0" stroke="#664203" stroke-width="3" stroke-opacity="1"/>
        </g>
      </g>
      <g>
        <path d="M446.84 705.58L388.86 789.48L386.13 787.67L444.11 703.77L446.84 705.58Z" transform="matrix(1, 0, 0, 1, 0, 0)" opacity="1" fill="#4b2b08" fill-opacity="1"/>
      </g>
      <g>
        <path d="M286.74 1084.42C281.12 1089.78 260.39 1077.88 240.46 1057.86C220.54 1037.84 208.92 1017.23 214.54 1011.87C220.15 1006.51 240.88 1018.41 260.81 1038.44C280.73 1058.46 292.35 1079.06 286.74 1084.42Z" transform="matrix(1, 0, 0, 1, 0, 0)" opacity="1" fill="#cb700e" fill-opacity="1"/>
        <g>
          <path d="M286.74 1084.42C281.12 1089.78 260.39 1077.88 240.46 1057.86C220.54 1037.84 208.92 1017.23 214.54 1011.87C220.15 1006.51 240.88 1018.41 260.81 1038.44C280.73 1058.46 292.35 1079.06 286.74 1084.42Z" transform="matrix(1, 0, 0, 1, 0, 0)" opacity="1" fill-opacity="0" stroke="#664203" stroke-width="3" stroke-opacity="1"/>
        </g>
      </g>
      <g>
        <path d="M288.86 1084.57L211.85 1016.93L214.06 1014.52L291.06 1082.16L288.86 1084.57Z" transform="matrix(1, 0, 0, 1, 0, 0)" opacity="1" fill="#4b2b08" fill-opacity="1"/>
      </g>
      <g>
        <path d="M514.42 1252.19C520.6 1256.91 511.38 1278.64 493.82 1300.69C476.27 1322.74 457.01 1336.81 450.82 1332.09C444.64 1327.37 453.87 1305.63 471.42 1283.58C488.97 1261.53 508.24 1247.47 514.42 1252.19Z" transform="matrix(1, 0, 0, 1, 0, 0)" opacity="1" fill="#cb700e" fill-opacity="1"/>
        <g>
          <path d="M514.42 1252.19C520.6 1256.91 511.38 1278.64 493.82 1300.69C476.27 1322.74 457.01 1336.81 450.82 1332.09C444.64 1327.37 453.87 1305.63 471.42 1283.58C488.97 1261.53 508.24 1247.47 514.42 1252.19Z" transform="matrix(1, 0, 0, 1, 0, 0)" opacity="1" fill-opacity="0" stroke="#664203" stroke-width="3" stroke-opacity="1"/>
        </g>
      </g>
      <g>
        <path d="M514.29 1250.11L456.3 1334.01L453.57 1332.19L511.55 1248.29L514.29 1250.11Z" transform="matrix(1, 0, 0, 1, 0, 0)" opacity="1" fill="#4b2b08" fill-opacity="1"/>
      </g>
      <g>
        <path d="M207.38 1675.28C199.97 1677.77 186.41 1658.34 177.13 1631.9C167.85 1605.46 166.34 1581.96 173.75 1579.47C181.17 1576.97 194.72 1596.41 204 1622.85C213.28 1649.29 214.8 1672.78 207.38 1675.28Z" transform="matrix(1, 0, 0, 1, 0, 0)" opacity="1" fill="#cb700e" fill-opacity="1"/>
        <g>
          <path d="M207.38 1675.28C199.97 1677.77 186.41 1658.34 177.13 1631.9C167.85 1605.46 166.34 1581.96 173.75 1579.47C181.17 1576.97 194.72 1596.41 204 1622.85C213.28 1649.29 214.8 1672.78 207.38 1675.28Z" transform="matrix(1, 0, 0, 1, 0, 0)" opacity="1" fill-opacity="0" stroke="#664203" stroke-width="3" stroke-opacity="1"/>
        </g>
      </g>
      <g>
        <path d="M209.24 1676.3L169.12 1582.92L172.16 1581.66L212.28 1675.05L209.24 1676.3Z" transform="matrix(1, 0, 0, 1, 0, 0)" opacity="1" fill="#4b2b08" fill-opacity="1"/>
      </g>
      <g>
        <path d="M573.12 1768.45C579 1763.37 599.11 1776.25 618.01 1797.2C636.91 1818.15 647.49 1839.29 641.61 1844.37C635.74 1849.46 615.62 1836.58 596.72 1815.62C577.82 1794.67 567.25 1773.53 573.12 1768.45Z" transform="matrix(1, 0, 0, 1, 0, 0)" opacity="1" fill="#cb700e" fill-opacity="1"/>
        <g>
          <path d="M573.12 1768.45C579 1763.37 599.11 1776.25 618.01 1797.2C636.91 1818.15 647.49 1839.29 641.61 1844.37C635.74 1849.46 615.62 1836.58 596.72 1815.62C577.82 1794.67 567.25 1773.53 573.12 1768.45Z" transform="matrix(1, 0, 0, 1, 0, 0)" opacity="1" fill-opacity="0" stroke="#664203" stroke-width="3" stroke-opacity="1"/>
        </g>
      </g>
      <g>
        <path d="M571.01 1768.2L644.54 1839.45L642.22 1841.75L568.69 1770.5L571.01 1768.2Z" transform="matrix(1, 0, 0, 1, 0, 0)" opacity="1" fill="#4b2b08" fill-opacity="1"/>
      </g>
      <g>
        <path d="M283.7 2059.29C277.83 2054.2 257.71 2067.09 238.81 2088.04C219.91 2108.99 209.34 2130.13 215.21 2135.21C221.09 2140.3 241.2 2127.41 260.1 2106.46C279 2085.51 289.58 2064.37 283.7 2059.29Z" transform="matrix(1, 0, 0, 1, 0, 0)" opacity="1" fill="#cb700e" fill-opacity="1"/>
        <g>
          <path d="M283.7 2059.29C277.83 2054.2 257.71 2067.09 238.81 2088.04C219.91 2108.99 209.34 2130.13 215.21 2135.21C221.09 2140.3 241.2 2127.41 260.1 2106.46C279 2085.51 289.58 2064.37 283.7 2059.29Z" transform="matrix(1, 0, 0, 1, 0, 0)" opacity="1" fill-opacity="0" stroke="#664203" stroke-width="3" stroke-opacity="1"/>
        </g>
      </g>
      <g>
        <path d="M285.81 2059.04L212.28 2130.29L214.6 2132.59L288.13 2061.33L285.81 2059.04Z" transform="matrix(1, 0, 0, 1, 0, 0)" opacity="1" fill="#4b2b08" fill-opacity="1"/>
      </g>
      <g>
        <path d="M200.39 2408.07C207.3 2404.44 201.94 2381.49 188.43 2356.86C174.93 2332.23 158.35 2315.18 151.45 2318.82C144.54 2322.45 149.9 2345.4 163.41 2370.03C176.91 2394.66 193.49 2411.71 200.39 2408.07Z" transform="matrix(1, 0, 0, 1, 0, 0)" opacity="1" fill="#cb700e" fill-opacity="1"/>
        <g>
          <path d="M200.39 2408.07C207.3 2404.44 201.94 2381.49 188.43 2356.86C174.93 2332.23 158.35 2315.18 151.45 2318.82C144.54 2322.45 149.9 2345.4 163.41 2370.03C176.91 2394.66 193.49 2411.71 200.39 2408.07Z" transform="matrix(1, 0, 0, 1, 0, 0)" opacity="1" fill-opacity="0" stroke="#664203" stroke-width="3" stroke-opacity="1"/>
        </g>
      </g>
      <g>
        <path d="M199.9 2410.1L157.18 2317.83L154.17 2319.17L196.89 2411.44L199.9 2410.1Z" transform="matrix(1, 0, 0, 1, 0, 0)" opacity="1" fill="#4b2b08" fill-opacity="1"/>
      </g>
      <g>
        <path d="M161.66 2610.15C306.94 2638.18 478.63 2584.28 544.66 2573.5C610.69 2562.72 676.73 2513.13 673.43 2482.95C670.12 2452.77 628.3 2416.11 583.18 2425.82C538.06 2435.52 529.25 2451.69 470.92 2482.95C432.03 2503.79 390.21 2508.82 345.46 2498.04C258.88 2465.7 177.8 2458.87 102.23 2477.56C26.66 2496.24 -3.79 2520.68 10.88 2550.86C14.55 2571.7 64.81 2591.47 161.66 2610.15Z" transform="matrix(1, 0, 0, 1, 0, 0)" opacity="1" fill="#563308" fill-opacity="1"/>
        <g>
          <path d="M161.66 2610.15C306.94 2638.18 478.63 2584.28 544.66 2573.5C610.69 2562.72 676.73 2513.13 673.43 2482.95C670.12 2452.77 628.3 2416.11 583.18 2425.82C538.06 2435.52 529.25 2451.69 470.92 2482.95C432.03 2503.79 390.21 2508.82 345.46 2498.04C258.88 2465.7 177.8 2458.87 102.23 2477.56C26.66 2496.24 -3.79 2520.68 10.88 2550.86C14.55 2571.7 64.81 2591.47 161.66 2610.15Z" transform="matrix(1, 0, 0, 1, 0, 0)" opacity="1" fill-opacity="0" stroke="#3b2301" stroke-width="11" stroke-opacity="1"/>
        </g>
      </g>
    </g>
  </g>
</svg>